<svg width="332" height="288" viewBox="0 0 332 288" fill="none" xmlns="http://www.w3.org/2000/svg">
<path d="M239.099 68.7406C238.232 78.3011 229.783 85.4716 220.25 84.6024C210.718 83.7333 203.568 75.2592 204.435 65.6986C205.301 56.138 213.751 48.9676 223.283 49.8368C232.816 50.7059 239.965 59.18 239.099 68.7406Z" fill="#F6A434"/>
<path d="M169.767 89.59C181.032 90.2418 213.313 106.104 297.806 76.5528C298.456 76.3355 298.889 77.422 298.239 77.8565C279.608 86.9825 213.313 126.746 179.299 253.64C179.083 254.292 178.216 254.292 177.999 253.858C174.316 245.601 160.451 206.272 188.832 135.22C196.414 116.316 195.115 110.449 169.117 91.7628C168.25 91.111 168.683 89.8072 169.767 89.8072V89.59Z" fill="#F6A434"/>
<path d="M127.955 125.87C131.421 131.302 129.904 138.69 124.272 142.166C118.855 145.643 111.489 144.122 108.023 138.472C104.557 133.04 106.073 125.653 111.706 122.176C117.122 118.699 124.488 120.22 127.955 125.87Z" fill="#009C57"/>
<path d="M95.8957 169.343C103.478 165.214 130.126 160.651 157.641 112.197C157.857 111.762 158.507 111.979 158.291 112.414C153.741 125.886 140.309 176.948 168.69 252.346C168.906 252.998 168.256 253.432 167.823 253.215C161.757 249.738 138.792 234.094 125.143 185.422C121.46 172.167 118.211 169.56 96.329 170.429C95.6791 170.429 95.6791 169.777 96.1124 169.56L95.8957 169.343Z" fill="#009C57"/>
<path d="M293.257 173.242C289.357 178.457 281.991 179.543 276.792 175.632C271.592 171.721 270.509 164.334 274.409 159.119C278.308 153.904 285.674 152.817 290.874 156.729C296.073 160.64 297.157 168.027 293.257 173.242Z" fill="#0077BD"/>
<path d="M241.478 157.392C248.411 163.476 257.727 188.899 326.404 195.852C326.838 195.852 326.838 196.504 326.404 196.504C312.755 196.721 249.277 200.415 189.699 255.171C189.266 255.606 188.616 255.171 188.832 254.736C189.699 248.218 195.982 220.84 236.712 190.203C247.761 181.946 249.061 178.252 240.611 158.044C240.395 157.392 241.045 156.958 241.478 157.392Z" fill="#0077BD"/>
<path d="M85.4856 52.8751L23.524 68.0851L30.8901 98.0705C30.8901 98.0705 62.5208 87.4235 107.15 93.7248L85.4856 52.6578V52.8751Z" fill="#306EB5"/>
<path d="M84.8472 53.3148L131.427 9.64038L152.442 32.4554C152.442 32.4554 126.227 53.0975 107.162 94.1644L84.8472 53.5321V53.3148Z" fill="#2E5B94"/>
<path d="M10.967 84.8017L40.6479 155.637C40.8645 156.289 41.7311 156.506 42.1644 156.071L45.6308 153.247C46.0641 153.029 46.0641 152.377 45.8475 151.943L15.0833 84.3671C14.8667 84.1499 14.65 83.9326 14.2167 83.7153L11.8336 83.2807C10.967 83.0634 10.317 83.9326 10.7503 84.8017H10.967Z" fill="#2D588F"/>
<path d="M160.886 2.24146L90.908 62.4295C90.6914 62.6468 90.6914 62.6468 90.4747 62.6468L1.64872 86.9828C0.348831 87.4174 -0.517764 85.6791 0.348831 84.8099L70.3264 24.6219C70.543 24.4046 70.543 24.4046 70.7597 24.4046L159.586 0.0686007C160.886 -0.36597 161.752 1.37231 160.886 2.24146Z" fill="#2F9ED8"/>
<path d="M186.445 31.3503L171.279 13.0984C171.279 13.0984 254.039 -13.845 293.036 58.0765L279.821 60.2493C279.821 60.2493 250.573 9.6218 186.445 31.3503Z" fill="#ED3237"/>
<path d="M300.189 212.128C275.058 249.501 239.094 272.967 187.099 270.36C142.686 268.187 87.007 238.854 76.3912 173.451C76.3912 173.451 76.8245 270.577 180.599 286.222C245.594 296 311.888 251.891 331.387 207.13L300.406 211.91L300.189 212.128Z" fill="#ED3237"/>
</svg>
